<svg width="119" height="119" viewBox="0 0 119 119" fill="none" xmlns="http://www.w3.org/2000/svg">
<path d="M116.542 0H2.44347C1.35708 0 0.476257 0.880826 0.476257 1.96721V80.6556C0.476257 81.742 1.35708 82.6228 2.44347 82.6228H38.0492L21.7217 98.9368C21.1588 99.5006 20.9908 100.348 21.2962 101.084C21.6026 101.818 22.3221 102.297 23.1184 102.295H37.8532V117.03C37.8532 117.825 38.3325 118.542 39.0674 118.846C39.8022 119.151 40.6484 118.983 41.2113 118.42L59.3091 100.322L59.4925 100.328H59.677L77.7757 118.426C78.3385 118.987 79.1858 119.154 79.9206 118.849C80.6544 118.544 81.1328 117.825 81.1318 117.03V102.295H95.8657C96.6611 102.295 97.3786 101.816 97.6831 101.081C97.9876 100.346 97.8195 99.4997 97.2566 98.9368L80.9349 82.6228H116.542C117.628 82.6228 118.509 81.742 118.509 80.6556V1.96721C118.509 0.880826 117.628 0 116.542 0V0ZM75.2158 81.5057C75.1783 82.0465 75.1255 82.568 75.0544 83.0637C74.9843 83.5276 74.8796 83.9762 74.7912 84.3758L74.7067 84.6861C74.6539 84.883 74.6039 85.0799 74.5098 85.3632C74.3503 85.9011 74.1534 86.4266 73.92 86.9366C73.8624 87.0769 73.8095 87.2161 73.7231 87.3929C73.5262 87.7867 73.3293 88.1959 73.0978 88.5734C72.8884 88.9384 72.6578 89.2909 72.4071 89.6281C72.1747 89.9768 71.9221 90.312 71.6512 90.6309C71.6022 90.6885 71.5561 90.7481 71.5138 90.8105C71.2362 91.139 70.9394 91.4531 70.6224 91.7701C70.3055 92.0871 69.9952 92.3801 69.6705 92.6596C69.6062 92.7019 69.5437 92.747 69.4851 92.7969C69.1288 93.0947 68.7561 93.3733 68.3699 93.6317C68.0703 93.8516 67.7581 94.0543 67.4353 94.2387C67.0521 94.4654 66.6486 94.6739 66.2145 94.8823C66.0723 94.9534 65.933 95.0062 65.6775 95.1148C65.1732 95.3434 64.6545 95.5355 64.1233 95.6892C63.9264 95.7602 63.7295 95.8092 63.5326 95.8621L63.2733 95.9332C62.8228 96.035 62.3742 96.1301 61.9198 96.2079C61.4184 96.2809 60.8969 96.3327 60.3599 96.3692C60.0823 96.3932 59.7951 96.3932 59.4925 96.3932C59.189 96.3932 58.9018 96.3932 58.6424 96.3798C58.1017 96.3423 57.5801 96.2886 57.0844 96.2184C56.6205 96.1474 56.1719 96.0426 55.7723 95.9543L55.4611 95.8698C55.2642 95.8169 55.0682 95.7679 54.7849 95.6728C54.247 95.5144 53.7206 95.3174 53.2105 95.0831C53.0712 95.0264 52.932 94.9726 52.7543 94.8861C52.3614 94.6892 51.9522 94.4933 51.5737 94.2666C51.2068 94.0553 50.8524 93.8228 50.5114 93.5702C50.1646 93.3377 49.8303 93.0861 49.5105 92.8171C49.4528 92.7672 49.3923 92.7201 49.3299 92.6769C49.0014 92.4002 48.6863 92.1025 48.3693 91.7864C48.0524 91.4695 47.7594 91.1582 47.4808 90.8336C47.4386 90.7702 47.3934 90.7097 47.3444 90.6511C47.0447 90.2937 46.7652 89.9201 46.5068 89.532C46.2753 89.2199 46.0688 88.8913 45.8873 88.5484C45.6539 88.1729 45.4435 87.7838 45.2572 87.3833C45.187 87.2421 45.1332 87.1018 45.0276 86.8463C44.798 86.343 44.6049 85.8233 44.4513 85.2922C44.3802 85.0952 44.3312 84.8993 44.2774 84.7024L44.2073 84.4421C44.1045 83.9916 44.0008 83.543 43.9316 83.0887C43.8586 82.5872 43.8077 82.0657 43.7702 81.5287C43.7549 81.2454 43.7549 80.9466 43.7549 80.6556C43.7549 71.9635 50.8005 64.9179 59.4925 64.9179C68.1836 64.9179 75.2302 71.9635 75.2302 80.6556C75.2302 80.9485 75.2302 81.2454 75.2158 81.5057ZM41.7876 112.281V100.328C41.7876 99.2413 40.9068 98.3605 39.8204 98.3605H27.8673L40.4871 85.7407C40.5082 85.8195 40.5284 85.8906 40.5495 85.9655C40.5716 86.0395 40.5812 86.0875 40.5994 86.1442C40.6369 86.2738 40.6734 86.3939 40.709 86.4919C40.9011 87.146 41.1393 87.7848 41.4236 88.4043C41.5197 88.6483 41.6205 88.8904 41.7243 89.0969C41.9567 89.5916 42.2189 90.0709 42.5109 90.5329C42.7463 90.9834 43.0191 91.4137 43.3255 91.8191C43.6242 92.2658 43.945 92.6961 44.288 93.1101C44.3802 93.2359 44.4839 93.3541 44.4839 93.3541C44.8364 93.771 45.2082 94.1667 45.6001 94.5557C45.991 94.9457 46.3868 95.3232 46.6836 95.5614C46.7969 95.6709 46.918 95.7718 47.0457 95.864C47.4232 96.18 47.817 96.4759 48.2262 96.7496C48.6575 97.0704 49.107 97.3663 49.5739 97.6343C50.0551 97.9196 50.5575 98.1837 51.0272 98.4056C51.2366 98.5113 51.4508 98.6044 51.6708 98.687C52.2874 98.9733 52.9252 99.2144 53.5765 99.4094C53.856 99.5074 54.1336 99.5842 54.4189 99.661L41.7876 112.281ZM79.1646 98.3605C78.0782 98.3605 77.1974 99.2413 77.1974 100.328V112.281L64.5777 99.661L64.8015 99.5976C64.863 99.5823 64.9235 99.566 64.9811 99.5487C65.1108 99.5112 65.2309 99.4737 65.3288 99.4382C65.982 99.2461 66.6217 99.0079 67.2413 98.7245C67.4853 98.6285 67.7273 98.5276 67.9339 98.4239C68.4372 98.1837 68.9405 97.9196 69.4362 97.6362C69.8578 97.3951 70.2651 97.129 70.6561 96.8399C71.1037 96.5421 71.534 96.2204 71.9461 95.8755C72.0316 95.815 72.1132 95.7497 72.1901 95.6796C72.6079 95.327 73.0027 94.9553 73.3927 94.5634C73.7817 94.1725 74.1592 93.7767 74.3974 93.4799C74.5079 93.3656 74.6097 93.2446 74.7029 93.1159C75.0179 92.7393 75.3119 92.3455 75.5837 91.9353C75.9064 91.504 76.2023 91.0526 76.4712 90.5858C76.7565 90.1045 77.0197 89.6021 77.2426 89.1324C77.3645 88.8904 77.4644 88.6483 77.5259 88.4889C77.8112 87.8712 78.0513 87.2344 78.2454 86.5831C78.3443 86.3036 78.4202 86.026 78.497 85.7407L91.1168 98.3605H79.1646ZM114.574 78.6884H79.0657V78.6711C79.0503 78.5097 79.0148 78.3541 78.9946 78.1946C78.936 77.7182 78.8707 77.2427 78.7785 76.7778C78.7295 76.5319 78.6584 76.2966 78.6017 76.0565C78.5114 75.6847 78.4269 75.3111 78.3165 74.9489C78.2358 74.6867 78.1397 74.437 78.0485 74.1815C77.9332 73.8491 77.8189 73.5148 77.6844 73.1979C77.5788 72.9385 77.4548 72.6868 77.3386 72.4323C77.1955 72.1259 77.0553 71.8185 76.8977 71.5217C76.7642 71.2681 76.6182 71.026 76.4751 70.7802C76.3079 70.4949 76.1427 70.2096 75.9612 69.9339C75.8046 69.6947 75.6375 69.4623 75.4694 69.2279C75.2734 68.9647 75.088 68.7006 74.8796 68.4412C74.6712 68.1819 74.5136 67.9965 74.3254 67.7803C74.1121 67.5344 73.896 67.2943 73.6722 67.0599C73.4474 66.8265 73.2784 66.6507 73.0603 66.4519C72.8413 66.254 72.5839 66.01 72.338 65.7968C72.1219 65.6009 71.9029 65.4251 71.679 65.2464C71.4235 65.0495 71.1594 64.8526 70.8924 64.6566C70.6618 64.4914 70.4274 64.3281 70.1902 64.1706C69.9126 63.991 69.6273 63.8219 69.3401 63.6548C69.0961 63.5136 68.8521 63.3695 68.6005 63.2379C68.3018 63.0804 67.9944 62.9392 67.686 62.797C67.4334 62.6789 67.1817 62.5588 66.9243 62.4531C66.5996 62.3196 66.2654 62.2053 65.9407 62.0891C65.6852 62.0007 65.4335 61.9037 65.1713 61.8259C64.8178 61.7193 64.4519 61.629 64.0897 61.5464C63.84 61.4868 63.5941 61.4167 63.3395 61.3667C62.9303 61.2841 62.5115 61.2313 62.0927 61.1708C61.8766 61.141 61.6643 61.0978 61.4453 61.0757C60.8046 61.0133 60.1534 60.9777 59.4964 60.9777C58.8394 60.9777 58.1881 61.0133 57.5465 61.0757C57.3284 61.0978 57.1161 61.141 56.899 61.1708C56.4802 61.2255 56.0614 61.2784 55.6522 61.3667C55.3987 61.4167 55.1528 61.4868 54.903 61.5464C54.5409 61.6347 54.1749 61.7193 53.8205 61.8259C53.5592 61.9037 53.3075 62.0007 53.0511 62.0891C52.7187 62.2053 52.3844 62.3196 52.0675 62.4531C51.81 62.5588 51.5584 62.6789 51.3067 62.797C50.9974 62.9392 50.691 63.0804 50.3923 63.2379C50.1396 63.3695 49.8957 63.5136 49.6517 63.6548C49.3645 63.8219 49.0802 63.991 48.8026 64.1706C48.5643 64.3281 48.33 64.4914 48.1004 64.6566C47.8324 64.8526 47.5692 65.0495 47.3127 65.2464C47.0889 65.4251 46.8709 65.6085 46.6538 65.7968C46.4079 66.01 46.1658 66.2281 45.9324 66.4519C45.6981 66.6767 45.5213 66.8457 45.3206 67.0599C45.1198 67.2751 44.8797 67.5344 44.6674 67.7803C44.4705 67.9965 44.2937 68.2145 44.1122 68.4412C43.9316 68.6669 43.7193 68.9589 43.5224 69.2279C43.3553 69.4623 43.1881 69.6947 43.0306 69.9339C42.85 70.2096 42.6838 70.4949 42.5167 70.7802C42.3736 71.026 42.2276 71.2681 42.0941 71.5217C41.9365 71.8185 41.7973 72.1259 41.6532 72.4323C41.5369 72.6868 41.413 72.9385 41.3074 73.1979C41.1739 73.5225 41.0596 73.8568 40.9433 74.1815C40.853 74.437 40.7464 74.6867 40.6753 74.9489C40.5658 75.3111 40.4794 75.6847 40.391 76.0565C40.3334 76.2966 40.2623 76.5319 40.2133 76.7778C40.1211 77.2427 40.0558 77.7182 39.9972 78.1946C39.977 78.3541 39.9424 78.5097 39.9261 78.6711V78.6884H4.41068V3.93442H114.574V78.6884Z" fill="#009EE1"/>
<path d="M59.4923 68.8523C56.3388 68.8638 53.3207 70.1317 51.1057 72.3756C48.8907 74.6185 47.6612 77.6529 47.689 80.8054V81.2376C47.7178 81.6805 47.7611 82.1069 47.8129 82.4729C47.9503 83.4421 48.7793 84.1625 49.7581 84.1635C49.8522 84.1635 49.9463 84.1568 50.0395 84.1433C51.1153 83.9906 51.8626 82.9945 51.7099 81.9187C51.6686 81.6372 51.6369 81.3068 51.6167 81.0158V80.6556C51.6167 76.31 55.14 72.7867 59.4856 72.7867C60.5729 72.7867 61.4528 71.9059 61.4528 70.8195C61.4528 69.7331 60.5729 68.8523 59.4856 68.8523H59.4923Z" fill="#009EE1"/>
<path d="M94.9021 23.6065H24.0826C22.9962 23.6065 22.1154 22.7257 22.1154 21.6393C22.1154 20.5529 22.9962 19.6721 24.0826 19.6721H94.9021C95.9885 19.6721 96.8693 20.5529 96.8693 21.6393C96.8693 22.7257 95.9885 23.6065 94.9021 23.6065Z" fill="#009EE1"/>
<path d="M94.9021 35.4098H24.0826C22.9962 35.4098 22.1154 34.5289 22.1154 33.4426C22.1154 32.3562 22.9962 31.4753 24.0826 31.4753H94.9021C95.9885 31.4753 96.8693 32.3562 96.8693 33.4426C96.8693 34.5289 95.9885 35.4098 94.9021 35.4098Z" fill="#009EE1"/>
<path d="M94.9021 47.2131H24.0826C22.9962 47.2131 22.1154 46.3323 22.1154 45.2459C22.1154 44.1595 22.9962 43.2787 24.0826 43.2787H94.9021C95.9885 43.2787 96.8693 44.1595 96.8693 45.2459C96.8693 46.3323 95.9885 47.2131 94.9021 47.2131Z" fill="#009EE1"/>
</svg>
