<svg width="128" height="128" viewBox="0 0 128 128" fill="none" xmlns="http://www.w3.org/2000/svg">
<path d="M64 15C63.7701 14.9999 63.5425 15.045 63.3301 15.1329C63.1178 15.2208 62.9248 15.3497 62.7623 15.5123C62.5997 15.6748 62.4708 15.8678 62.3829 16.0801C62.295 16.2925 62.2499 16.5201 62.25 16.75V28C62.25 28.4641 62.4344 28.9092 62.7626 29.2374C63.0908 29.5656 63.5359 29.75 64 29.75C64.4641 29.75 64.9092 29.5656 65.2374 29.2374C65.5656 28.9092 65.75 28.4641 65.75 28V16.747C65.7495 16.2833 65.5648 15.8388 65.2367 15.5112C64.9085 15.1836 64.4637 14.9997 64 15Z" fill="#009EE1"/>
<path d="M64 98.244C63.7701 98.2439 63.5425 98.2891 63.3301 98.377C63.1178 98.4649 62.9248 98.5938 62.7623 98.7563C62.5997 98.9188 62.4708 99.1118 62.3829 99.3242C62.295 99.5365 62.2499 99.7642 62.25 99.994V111.247C62.25 111.711 62.4344 112.156 62.7626 112.484C63.0908 112.813 63.5359 112.997 64 112.997C64.4641 112.997 64.9092 112.813 65.2374 112.484C65.5656 112.156 65.75 111.711 65.75 111.247V99.994C65.7501 99.7642 65.705 99.5365 65.6171 99.3242C65.5292 99.1118 65.4003 98.9188 65.2377 98.7563C65.0752 98.5938 64.8822 98.4649 64.6699 98.377C64.4575 98.2891 64.2299 98.2439 64 98.244Z" fill="#009EE1"/>
<path d="M31.826 29.3491C31.6636 29.1866 31.4707 29.0577 31.2585 28.9698C31.0462 28.8819 30.8187 28.8367 30.589 28.8367C30.3593 28.8367 30.1318 28.8819 29.9195 28.9698C29.7073 29.0577 29.5144 29.1866 29.352 29.3491C29.1896 29.5115 29.0607 29.7043 28.9728 29.9166C28.8849 30.1288 28.8396 30.3563 28.8396 30.5861C28.8396 30.8158 28.8849 31.0433 28.9728 31.2555C29.0607 31.4678 29.1896 31.6606 29.352 31.8231L37.309 39.78C37.6371 40.1081 38.082 40.2924 38.546 40.2924C39.01 40.2924 39.4549 40.1081 39.783 39.78C40.1111 39.452 40.2954 39.007 40.2954 38.543C40.2954 38.0791 40.1111 37.6341 39.783 37.306L31.826 29.3491Z" fill="#009EE1"/>
<path d="M90.691 88.2139C90.3609 87.8952 89.9188 87.7189 89.46 87.723C89.0011 87.727 88.5622 87.9112 88.2378 88.2357C87.9134 88.5602 87.7295 88.9992 87.7256 89.458C87.7217 89.9169 87.8982 90.3589 88.217 90.6889L96.174 98.6459C96.3355 98.813 96.5286 98.9463 96.7421 99.038C96.9557 99.1296 97.1853 99.1779 97.4177 99.1798C97.65 99.1818 97.8805 99.1375 98.0955 99.0495C98.3106 98.9614 98.5059 98.8314 98.6702 98.6671C98.8345 98.5027 98.9644 98.3073 99.0523 98.0922C99.1403 97.8772 99.1845 97.6467 99.1825 97.4143C99.1804 97.182 99.1321 96.9524 99.0403 96.7389C98.9485 96.5254 98.8152 96.3323 98.648 96.1709L90.691 88.2139Z" fill="#009EE1"/>
<path d="M29.753 64C29.7535 63.7696 29.7085 63.5414 29.6206 63.3285C29.5327 63.1156 29.4036 62.9221 29.2407 62.7592C29.0778 62.5963 28.8844 62.4672 28.6715 62.3793C28.4585 62.2914 28.2304 62.2464 28 62.247H16.75C16.2859 62.247 15.8408 62.4313 15.5126 62.7595C15.1844 63.0877 15 63.5328 15 63.997C15 64.4611 15.1844 64.9062 15.5126 65.2344C15.8408 65.5626 16.2859 65.747 16.75 65.747H28C28.2298 65.7475 28.4575 65.7027 28.6701 65.6152C28.8826 65.5276 29.0758 65.3991 29.2386 65.2368C29.4014 65.0746 29.5306 64.8818 29.6189 64.6696C29.7072 64.4573 29.7527 64.2298 29.753 64Z" fill="#009EE1"/>
<path d="M111.25 62.2469H100C99.5359 62.2469 99.0908 62.4313 98.7626 62.7595C98.4344 63.0877 98.25 63.5328 98.25 63.9969C98.25 64.4611 98.4344 64.9062 98.7626 65.2344C99.0908 65.5626 99.5359 65.7469 100 65.7469H111.25C111.714 65.7469 112.159 65.5626 112.487 65.2344C112.816 64.9062 113 64.4611 113 63.9969C113 63.5328 112.816 63.0877 112.487 62.7595C112.159 62.4313 111.714 62.2469 111.25 62.2469Z" fill="#009EE1"/>
<path d="M37.309 88.2139L29.352 96.1709C29.0332 96.5009 28.8567 96.9429 28.8606 97.4017C28.8645 97.8606 29.0484 98.2996 29.3728 98.6241C29.6972 98.9486 30.1361 99.1327 30.5949 99.1368C31.0538 99.1409 31.4959 98.9646 31.826 98.6459L39.783 90.6889C40.1018 90.3589 40.2783 89.9169 40.2744 89.458C40.2705 88.9992 40.0866 88.5602 39.7622 88.2357C39.4378 87.9112 38.9989 87.727 38.5401 87.723C38.0812 87.7189 37.6391 87.8952 37.309 88.2139Z" fill="#009EE1"/>
<path d="M87 49.4381C86.7701 49.438 86.5425 49.4832 86.3301 49.5711C86.1178 49.659 85.9248 49.7879 85.7623 49.9504C85.5997 50.1129 85.4708 50.3059 85.3829 50.5183C85.295 50.7306 85.2499 50.9583 85.25 51.1881V61.1561H71.127V51.1881C71.127 50.724 70.9426 50.2789 70.6144 49.9507C70.2862 49.6225 69.8411 49.4381 69.377 49.4381C68.9129 49.4381 68.4678 49.6225 68.1396 49.9507C67.8114 50.2789 67.627 50.724 67.627 51.1881V62.9061C67.6269 63.136 67.672 63.3636 67.7599 63.576C67.8478 63.7883 67.9767 63.9813 68.1393 64.1438C68.3018 64.3064 68.4948 64.4353 68.7071 64.5232C68.9195 64.6111 69.1471 64.6562 69.377 64.6561H85.252V74.6251C85.252 75.0892 85.4364 75.5344 85.7646 75.8625C86.0927 76.1907 86.5379 76.3751 87.002 76.3751C87.4661 76.3751 87.9112 76.1907 88.2394 75.8625C88.5676 75.5344 88.752 75.0892 88.752 74.6251V51.1881C88.7521 50.9581 88.7069 50.7303 88.6189 50.5178C88.5308 50.3053 88.4018 50.1122 88.239 49.9497C88.0763 49.7871 87.8831 49.6583 87.6705 49.5705C87.4578 49.4827 87.23 49.4377 87 49.4381Z" fill="#00A0E4" stroke="#01A9F1" stroke-width="3"/>
<path d="M58.623 49.4381H41C40.5359 49.4381 40.0907 49.6225 39.7626 49.9507C39.4344 50.2789 39.25 50.724 39.25 51.1881C39.25 51.6522 39.4344 52.0974 39.7626 52.4255C40.0907 52.7537 40.5359 52.9381 41 52.9381H56.873V57.7511L40.027 68.9811C39.7873 69.1412 39.5909 69.3579 39.455 69.612C39.3191 69.8662 39.248 70.1499 39.248 70.4381V74.6251C39.2479 74.8551 39.2931 75.0829 39.3811 75.2954C39.4692 75.5079 39.5982 75.701 39.761 75.8636C39.9237 76.0261 40.1169 76.155 40.3295 76.2427C40.5421 76.3305 40.77 76.3755 41 76.3751H58.623C59.0871 76.3751 59.5322 76.1907 59.8604 75.8625C60.1886 75.5344 60.373 75.0892 60.373 74.6251C60.373 74.161 60.1886 73.7159 59.8604 73.3877C59.5322 73.0595 59.0871 72.8751 58.623 72.8751H42.748V71.3751L59.594 60.1451C59.8336 59.9852 60.03 59.7687 60.1659 59.5147C60.3018 59.2607 60.3729 58.9772 60.373 58.6891V51.1891C60.3733 50.9592 60.3282 50.7314 60.2403 50.519C60.1525 50.3065 60.0236 50.1134 59.8611 49.9507C59.6985 49.7881 59.5055 49.6591 59.2931 49.5711C59.0806 49.4832 58.8529 49.438 58.623 49.4381Z" fill="#00A0E4" stroke="#01A9F1" stroke-width="3"/>
<path d="M122.467 42.632L108.367 47.784C112.286 58.4748 112.221 70.2202 108.181 80.8662C104.142 91.5122 96.3999 100.345 86.3752 105.745C76.3505 111.145 64.7151 112.75 53.6028 110.266C42.4906 107.781 32.6464 101.374 25.8757 92.2194C19.1051 83.0645 15.8617 71.7756 16.7406 60.4229C17.6195 49.0703 22.5616 38.4151 30.6606 30.4113C38.7596 22.4076 49.4726 17.5918 60.8348 16.8474C72.1971 16.1029 83.4468 19.4795 92.521 26.358L85.357 32.369L112.69 36.848L113.026 9.15304L104.243 16.522C92.7137 6.75934 78.0256 1.52605 62.9206 1.79911C47.8157 2.07217 33.3263 7.83293 22.1574 18.006C10.9886 28.179 3.90357 42.0689 2.2251 57.0828C0.546633 72.0967 4.38942 87.2084 13.0361 99.5966C21.6827 111.985 34.5422 120.803 49.214 124.405C63.8858 128.007 79.3669 126.146 92.7674 119.171C106.168 112.195 116.572 100.581 122.037 86.4968C127.502 72.4125 127.655 56.8207 122.467 42.632Z" fill="#9BE1FF"/>
</svg>
